<?xml version="1.0" encoding="UTF-8" standalone="no"?>
<!-- Created with Inkscape (http://www.inkscape.org/) -->

<svg
   xmlns:dc="http://purl.org/dc/elements/1.1/"
   xmlns:cc="http://creativecommons.org/ns#"
   xmlns:rdf="http://www.w3.org/1999/02/22-rdf-syntax-ns#"
   xmlns:svg="http://www.w3.org/2000/svg"
   xmlns="http://www.w3.org/2000/svg"
   xmlns:sodipodi="http://sodipodi.sourceforge.net/DTD/sodipodi-0.dtd"
   xmlns:inkscape="http://www.inkscape.org/namespaces/inkscape"
   width="3709.637"
   height="590.28571"
   id="svg12334"
   version="1.1"
   inkscape:version="0.91pre2 r"
   viewBox="0 0 3709.637 590.28571"
   sodipodi:docname="mouth expressions.svg">
  <defs
     id="defs12336" />
  <sodipodi:namedview
     id="base"
     pagecolor="#ffffff"
     bordercolor="#666666"
     borderopacity="1.0"
     inkscape:pageopacity="0.0"
     inkscape:pageshadow="2"
     inkscape:zoom="0.24748737"
     inkscape:cx="1763.8819"
     inkscape:cy="1316.8752"
     inkscape:document-units="px"
     inkscape:current-layer="layer1"
     showgrid="false"
     fit-margin-top="50"
     fit-margin-left="50"
     fit-margin-right="50"
     fit-margin-bottom="50"
     inkscape:window-width="1920"
     inkscape:window-height="1019"
     inkscape:window-x="0"
     inkscape:window-y="-3"
     inkscape:window-maximized="1" />
  <metadata
     id="metadata12339">
    <rdf:RDF>
      <cc:Work
         rdf:about="">
        <dc:format>image/svg+xml</dc:format>
        <dc:type
           rdf:resource="http://purl.org/dc/dcmitype/StillImage" />
        <dc:title></dc:title>
      </cc:Work>
    </rdf:RDF>
  </metadata>
  <g
     inkscape:label="Layer 1"
     inkscape:groupmode="layer"
     id="layer1"
     transform="translate(569.42859,-157.21933)">
    <rect
       style="opacity:1;fill:#ffd42a;fill-opacity:1;stroke:#502d16;stroke-width:16;stroke-linecap:round;stroke-miterlimit:4;stroke-dasharray:none;stroke-dashoffset:0;stroke-opacity:1"
       id="rect12342"
       width="474.28571"
       height="474.28571"
       x="74.285706"
       y="215.21933"
       ry="74.285713" />
    <path
       style="fill:#000000;fill-rule:evenodd;stroke:#000000;stroke-width:1px;stroke-linecap:butt;stroke-linejoin:miter;stroke-opacity:1"
       d="M 173.24731,486.77829 C 400.53163,513.04226 425.40548,433.312 425.40548,433.312 c 0,0 31.25868,40.2881 34.34518,73.74114 3.94387,42.74562 3.03046,114.14723 -101.01525,111.11678 -104.04571,-3.03046 -114.14724,-26.26397 -114.14724,-26.26397 0,0 3.03046,5.05076 21.2132,10.10153 18.18275,5.05076 19.1929,4.04061 19.1929,4.04061 0,0 11.11168,-15.15229 4.04061,-49.49748 -7.07107,-34.34519 -22.22335,-58.58885 -22.22335,-58.58885 -42.23381,-2.8688 -40.01081,-3.42364 -93.56422,-11.18347 z"
       id="path12344"
       inkscape:connector-curvature="0"
       sodipodi:nodetypes="ccsscscscc" />
    <path
       style="fill:#ff80b2;fill-rule:evenodd;stroke:none;stroke-width:1px;stroke-linecap:butt;stroke-linejoin:miter;stroke-opacity:1"
       d="m 357.85714,578.07648 c 0,0 46.42857,-37.85714 72.14286,-41.42857 25.71428,-3.57143 26.42857,1.42857 26.42857,1.42857 0,0 -0.71429,42.85714 -30.71429,60.71429 -30,17.85714 -49.28571,16.42857 -86.42857,13.57143 -37.14286,-2.85715 -42.85714,-5 -42.85714,-5 29.5542,-45.36983 55.61684,-55.46011 96.42857,-61.42858 -17.79963,8.84787 -29.90382,12.92126 -35,32.14286 z"
       id="path12346"
       inkscape:connector-curvature="0"
       sodipodi:nodetypes="cscssccc" />
    <path
       style="fill:#ffd42a;fill-opacity:1;fill-rule:evenodd;stroke:#000000;stroke-width:6;stroke-linecap:butt;stroke-linejoin:miter;stroke-opacity:1"
       d="M 386.42857,424.50505 C 424.28571,476.64791 475,462.36219 475,462.36219"
       id="path12348"
       inkscape:connector-curvature="0" />
    <path
       style="fill:#ffd42a;fill-opacity:1;fill-rule:evenodd;stroke:none;stroke-width:1px;stroke-linecap:butt;stroke-linejoin:miter;stroke-opacity:1"
       d="m 395,414.50505 c 34.28571,40.71429 51.42857,37.14286 51.42857,37.14286 l -8.57143,-29.28572 z"
       id="path12350"
       inkscape:connector-curvature="0" />
    <rect
       ry="74.285713"
       y="215.21933"
       x="-511.42859"
       height="474.28571"
       width="474.28571"
       id="rect12352"
       style="opacity:1;fill:#ffd42a;fill-opacity:1;stroke:#502d16;stroke-width:16;stroke-linecap:round;stroke-miterlimit:4;stroke-dasharray:none;stroke-dashoffset:0;stroke-opacity:1" />
    <path
       style="fill:none;fill-rule:evenodd;stroke:#000000;stroke-width:8;stroke-linecap:butt;stroke-linejoin:miter;stroke-opacity:1"
       d="m -417.14287,563.79076 c 217.67356,40.66338 284.35902,-77.40837 280,-82.85714"
       id="path12354"
       inkscape:connector-curvature="0"
       sodipodi:nodetypes="cc" />
    <path
       inkscape:connector-curvature="0"
       id="path12356"
       d="m -173.57144,453.07648 c 37.85714,52.14286 88.57143,37.85714 88.57143,37.85714"
       style="fill:#ffd42a;fill-opacity:1;fill-rule:evenodd;stroke:#000000;stroke-width:6;stroke-linecap:butt;stroke-linejoin:miter;stroke-opacity:1" />
    <path
       inkscape:connector-curvature="0"
       id="path12358"
       d="m -165.00001,443.07648 c 34.28571,40.71429 51.42857,37.14286 51.42857,37.14286 l -8.57143,-29.28572 z"
       style="fill:#ffd42a;fill-opacity:1;fill-rule:evenodd;stroke:none;stroke-width:1px;stroke-linecap:butt;stroke-linejoin:miter;stroke-opacity:1" />
    <rect
       style="opacity:1;fill:#ffd42a;fill-opacity:1;stroke:#502d16;stroke-width:16;stroke-linecap:round;stroke-miterlimit:4;stroke-dasharray:none;stroke-dashoffset:0;stroke-opacity:1"
       id="rect12360"
       width="474.28571"
       height="474.28571"
       x="692.67328"
       y="215.21933"
       ry="74.285713" />
    <path
       sodipodi:nodetypes="cc"
       inkscape:connector-curvature="0"
       id="path12362"
       d="m 827.40078,537.41308 c 96.47119,-72.24083 213.34252,-9.75501 211.53072,-3.01651"
       style="fill:none;fill-rule:evenodd;stroke:#000000;stroke-width:8;stroke-linecap:butt;stroke-linejoin:miter;stroke-opacity:1" />
    <g
       id="g12368"
       transform="matrix(0.99619615,-0.0871391,0.0871391,0.99619615,-80.8059,60.901932)">
      <path
         inkscape:connector-curvature="0"
         id="path12364"
         d="m 1060.2479,591.19876 c 12.7471,-40.74049 47.617,-42.49373 47.617,-42.49373"
         style="fill:#ffd42a;fill-opacity:1;fill-rule:evenodd;stroke:#000000;stroke-width:6;stroke-linecap:butt;stroke-linejoin:miter;stroke-opacity:1" />
      <path
         inkscape:connector-curvature="0"
         id="path12366"
         d="m 1067.7455,595.66481 c 12.9213,-32.81027 24.4424,-34.19243 24.4424,-34.19243 l 0.8105,20.19851 z"
         style="fill:#ffd42a;fill-opacity:1;fill-rule:evenodd;stroke:none;stroke-width:1px;stroke-linecap:butt;stroke-linejoin:miter;stroke-opacity:1" />
    </g>
    <g
       id="g12372"
       transform="matrix(-0.99619615,0.0871391,0.0871391,0.99619615,1849.7118,-122.16013)">
      <path
         style="fill:#ffd42a;fill-opacity:1;fill-rule:evenodd;stroke:#000000;stroke-width:6;stroke-linecap:butt;stroke-linejoin:miter;stroke-opacity:1"
         d="m 1060.2479,591.19876 c 12.7471,-40.74049 47.617,-42.49373 47.617,-42.49373"
         id="path12374"
         inkscape:connector-curvature="0" />
      <path
         style="fill:#ffd42a;fill-opacity:1;fill-rule:evenodd;stroke:none;stroke-width:1px;stroke-linecap:butt;stroke-linejoin:miter;stroke-opacity:1"
         d="m 1067.7455,595.66481 c 12.9213,-32.81027 24.4424,-34.19243 24.4424,-34.19243 l 0.8105,20.19851 z"
         id="path12376"
         inkscape:connector-curvature="0" />
    </g>
    <rect
       ry="74.285713"
       y="215.21933"
       x="1338.3876"
       height="474.28571"
       width="474.28571"
       id="rect12378"
       style="opacity:1;fill:#ffd42a;fill-opacity:1;stroke:#502d16;stroke-width:16;stroke-linecap:round;stroke-miterlimit:4;stroke-dasharray:none;stroke-dashoffset:0;stroke-opacity:1" />
    <rect
       ry="74.285713"
       y="215.21933"
       x="1966.959"
       height="474.28571"
       width="474.28571"
       id="rect12926"
       style="opacity:1;fill:#ffd42a;fill-opacity:1;stroke:#502d16;stroke-width:16;stroke-linecap:round;stroke-miterlimit:4;stroke-dasharray:none;stroke-dashoffset:0;stroke-opacity:1" />
    <path
       style="fill:none;fill-rule:evenodd;stroke:#000000;stroke-width:8;stroke-linecap:butt;stroke-linejoin:miter;stroke-opacity:1"
       d="m 2107.4008,537.41308 c 11.3823,-8.52346 25.9057,-19.45712 34.7705,-20.25669 12.401,-1.11852 21.6755,12.96253 33.2047,13.53942 13.6508,0.68305 25.973,-27.83033 37.8701,-27.80757 12.6097,0.0241 13.1588,25.72387 23.7225,27.47634 10.5638,1.75247 19.7878,-17.56321 28.4671,-17.55796 12.2991,0.007 20.1735,27.43549 25.2173,31.09796 11.0069,7.99247 28.6952,-11.05767 28.2785,-9.50801"
       id="path12928"
       inkscape:connector-curvature="0"
       sodipodi:nodetypes="cssscssc" />
    <g
       transform="matrix(0.81916162,-0.57356275,0.57356275,0.81916162,1113.4967,688.53918)"
       id="g12930">
      <path
         style="fill:#ffd42a;fill-opacity:1;fill-rule:evenodd;stroke:#000000;stroke-width:6;stroke-linecap:butt;stroke-linejoin:miter;stroke-opacity:1"
         d="m 1060.2479,591.19876 c 12.7471,-40.74049 47.617,-42.49373 47.617,-42.49373"
         id="path12932"
         inkscape:connector-curvature="0" />
      <path
         style="fill:#ffd42a;fill-opacity:1;fill-rule:evenodd;stroke:none;stroke-width:1px;stroke-linecap:butt;stroke-linejoin:miter;stroke-opacity:1"
         d="m 1067.7455,595.66481 c 12.9213,-32.81027 24.4424,-34.19243 24.4424,-34.19243 l 0.8105,20.19851 z"
         id="path12934"
         inkscape:connector-curvature="0" />
    </g>
    <g
       transform="matrix(-0.7660337,-0.6428004,-0.6428004,0.7660337,3297.3655,799.68289)"
       id="g12936">
      <path
         inkscape:connector-curvature="0"
         id="path12938"
         d="m 1060.2479,591.19876 c 12.7471,-40.74049 47.617,-42.49373 47.617,-42.49373"
         style="fill:#ffd42a;fill-opacity:1;fill-rule:evenodd;stroke:#000000;stroke-width:6;stroke-linecap:butt;stroke-linejoin:miter;stroke-opacity:1" />
      <path
         inkscape:connector-curvature="0"
         id="path12940"
         d="m 1067.7455,595.66481 c 12.9213,-32.81027 24.4424,-34.19243 24.4424,-34.19243 l 0.8105,20.19851 z"
         style="fill:#ffd42a;fill-opacity:1;fill-rule:evenodd;stroke:none;stroke-width:1px;stroke-linecap:butt;stroke-linejoin:miter;stroke-opacity:1" />
    </g>
    <path
       style="fill:#000000;fill-rule:evenodd;stroke:#000000;stroke-width:1px;stroke-linecap:butt;stroke-linejoin:miter;stroke-opacity:1"
       d="m 1440.4775,529.10317 c 278.8021,-105.05586 288.9037,-117.17769 305.0661,-62.62945 16.1624,54.54823 -12.1218,107.07617 -74.7513,111.11678 -62.6294,4.04061 -149.5026,-66.67007 -149.5026,-66.67007 z"
       id="path12951"
       inkscape:connector-curvature="0" />
    <path
       style="fill:#ffffff;fill-rule:evenodd;stroke:#000000;stroke-width:1px;stroke-linecap:butt;stroke-linejoin:miter;stroke-opacity:1"
       d="m 1534.2857,508.07648 c 0,0 158.5714,-70 180,-61.42857 21.4286,8.57143 32.2654,36.47933 23.694,63.62219 -8.5714,27.14285 -24.1378,50.4361 -63.694,56.37781 -47.0704,7.07041 -141.6247,-56.94672 -140,-58.57143 z"
       id="path12953"
       inkscape:connector-curvature="0"
       sodipodi:nodetypes="csssc" />
    <path
       style="fill:none;fill-rule:evenodd;stroke:#000000;stroke-width:6;stroke-linecap:butt;stroke-linejoin:miter;stroke-opacity:1"
       d="m 1542.503,519.00165 201.0203,-27.27412"
       id="path12955"
       inkscape:connector-curvature="0"
       sodipodi:nodetypes="cc" />
    <path
       style="fill:none;fill-rule:evenodd;stroke:#000000;stroke-width:1px;stroke-linecap:butt;stroke-linejoin:miter;stroke-opacity:1"
       d="m 1572.3024,484.15139 8.5863,58.08377"
       id="path12957"
       inkscape:connector-curvature="0" />
    <path
       style="fill:none;fill-rule:evenodd;stroke:#000000;stroke-width:1px;stroke-linecap:butt;stroke-linejoin:miter;stroke-opacity:1"
       d="m 1595.5359,475.56509 c 2.0204,-0.50508 12.627,78.7919 12.627,78.7919"
       id="path12959"
       inkscape:connector-curvature="0" />
    <path
       style="fill:none;fill-rule:evenodd;stroke:#000000;stroke-width:1px;stroke-linecap:butt;stroke-linejoin:miter;stroke-opacity:1"
       d="m 1619.2745,466.47372 14.1422,99.50002"
       id="path12961"
       inkscape:connector-curvature="0" />
    <path
       style="fill:none;fill-rule:evenodd;stroke:#000000;stroke-width:1px;stroke-linecap:butt;stroke-linejoin:miter;stroke-opacity:1"
       d="m 1654.6299,453.34173 17.6776,115.66247"
       id="path12963"
       inkscape:connector-curvature="0" />
    <path
       style="fill:none;fill-rule:evenodd;stroke:#000000;stroke-width:1px;stroke-linecap:butt;stroke-linejoin:miter;stroke-opacity:1"
       d="m 1686.9548,444.25036 18.6878,113.13709"
       id="path12965"
       inkscape:connector-curvature="0" />
    <path
       style="fill:none;fill-rule:evenodd;stroke:#000000;stroke-width:1px;stroke-linecap:butt;stroke-linejoin:miter;stroke-opacity:1"
       d="m 1714.7339,442.73513 16.6676,89.90358"
       id="path12967"
       inkscape:connector-curvature="0" />
    <rect
       ry="74.285713"
       y="215.21933"
       x="2607.9226"
       height="474.28571"
       width="474.28571"
       id="rect12969"
       style="opacity:1;fill:#ffd42a;fill-opacity:1;stroke:#502d16;stroke-width:16;stroke-linecap:round;stroke-miterlimit:4;stroke-dasharray:none;stroke-dashoffset:0;stroke-opacity:1" />
    <path
       style="fill:none;fill-rule:evenodd;stroke:#000000;stroke-width:8;stroke-linecap:butt;stroke-linejoin:miter;stroke-opacity:1"
       d="m 2750.7313,525.7667 c 96.4711,72.24083 213.3425,9.75501 211.5307,3.01651"
       id="path12971"
       inkscape:connector-curvature="0"
       sodipodi:nodetypes="cc" />
    <g
       transform="matrix(0.99619615,0.0871391,0.0871391,-0.99619615,1842.5246,1002.2778)"
       id="g12973">
      <path
         style="fill:#ffd42a;fill-opacity:1;fill-rule:evenodd;stroke:#000000;stroke-width:6;stroke-linecap:butt;stroke-linejoin:miter;stroke-opacity:1"
         d="m 1060.2479,591.19876 c 12.7471,-40.74049 47.617,-42.49373 47.617,-42.49373"
         id="path12975"
         inkscape:connector-curvature="0" />
      <path
         style="fill:#ffd42a;fill-opacity:1;fill-rule:evenodd;stroke:none;stroke-width:1px;stroke-linecap:butt;stroke-linejoin:miter;stroke-opacity:1"
         d="m 1067.7455,595.66481 c 12.9213,-32.81027 24.4424,-34.19243 24.4424,-34.19243 l 0.8105,20.19851 z"
         id="path12977"
         inkscape:connector-curvature="0" />
    </g>
    <g
       transform="matrix(-0.99619615,-0.0871391,0.0871391,-0.99619615,3773.0423,1185.3399)"
       id="g12979">
      <path
         inkscape:connector-curvature="0"
         id="path12981"
         d="m 1060.2479,591.19876 c 12.7471,-40.74049 47.617,-42.49373 47.617,-42.49373"
         style="fill:#ffd42a;fill-opacity:1;fill-rule:evenodd;stroke:#000000;stroke-width:6;stroke-linecap:butt;stroke-linejoin:miter;stroke-opacity:1" />
      <path
         inkscape:connector-curvature="0"
         id="path12983"
         d="m 1067.7455,595.66481 c 12.9213,-32.81027 24.4424,-34.19243 24.4424,-34.19243 l 0.8105,20.19851 z"
         style="fill:#ffd42a;fill-opacity:1;fill-rule:evenodd;stroke:none;stroke-width:1px;stroke-linecap:butt;stroke-linejoin:miter;stroke-opacity:1" />
    </g>
    <path
       style="fill:#ff80b2;fill-opacity:1;fill-rule:evenodd;stroke:#000000;stroke-width:6;stroke-linecap:butt;stroke-linejoin:miter;stroke-opacity:1"
       d="m 2807.2139,553.34684 c 35.3553,3.92825 70.7107,6.68976 106.066,0 0,0 12.1218,101.01525 -50.5076,98.99495 -62.6295,-2.02031 -55.5584,-98.99495 -55.5584,-98.99495 z"
       id="path12985"
       inkscape:connector-curvature="0"
       sodipodi:nodetypes="ccsc" />
    <path
       style="fill:#000000;fill-opacity:1;fill-rule:evenodd;stroke:#000000;stroke-width:1px;stroke-linecap:butt;stroke-linejoin:miter;stroke-opacity:1"
       d="m 2851.4286,557.36219 10.7143,56.42857 -0.7143,-57.14285 z"
       id="path12987"
       inkscape:connector-curvature="0" />
  </g>
</svg>
